<svg id="Layer_1" data-name="Layer 1" xmlns="http://www.w3.org/2000/svg" xmlns:xlink="http://www.w3.org/1999/xlink" viewBox="0 0 240.36 369.22"><defs><style>.cls-1,.cls-7{fill:#fff;}.cls-2{fill:url(#linear-gradient);}.cls-3{fill:url(#linear-gradient-2);}.cls-4{fill:url(#linear-gradient-3);}.cls-5{fill:url(#linear-gradient-4);}.cls-6{fill:url(#linear-gradient-5);}.cls-7{opacity:0.3;}</style><linearGradient id="linear-gradient" x1="167.89" y1="452.19" x2="407.95" y2="452.19" gradientUnits="userSpaceOnUse"><stop offset="0" stop-color="#096e3b"/><stop offset="1" stop-color="#39b54a"/></linearGradient><linearGradient id="linear-gradient-2" x1="168.11" y1="366.76" x2="368.13" y2="366.76" gradientUnits="userSpaceOnUse"><stop offset="0.1" stop-color="#21409a"/><stop offset="1" stop-color="#00aeef"/></linearGradient><linearGradient id="linear-gradient-3" x1="298.41" y1="438.7" x2="298.41" y2="438.7" gradientUnits="userSpaceOnUse"><stop offset="0" stop-color="#009444"/><stop offset="1" stop-color="#8dc63f"/></linearGradient><linearGradient id="linear-gradient-4" x1="295.14" y1="452.19" x2="295.14" y2="452.19" gradientUnits="userSpaceOnUse"><stop offset="0" stop-color="#00aeef"/><stop offset="1" stop-color="#21409a"/></linearGradient><linearGradient id="linear-gradient-5" x1="185.04" y1="474.24" x2="185.04" y2="474.24" xlink:href="#linear-gradient-4"/></defs><path class="cls-1" d="M407.88,445.7a120.11,120.11,0,0,1-240,7.44q-.24-3.69-.24-7.44a83.93,83.93,0,0,1,.46-12.4c2.09-19.66,10.23-43.73,21.34-68.91,34.66-78.5,98.32-167.79,98.32-167.79s45.35,63.62,80.36,130.68q2.94,5.63,5.76,11.28C393.83,378.44,409,418.34,407.88,445.7Z" transform="translate(-167.59 -196.6)"/><path class="cls-2" d="M407.88,445.7a120.11,120.11,0,0,1-240,7.44c43.72,122.91,153.49,88.42,153.49,88.42a157.1,157.1,0,0,0,21.55-14.35c51.69-41.36,37.17-91.94,37.17-91.94-6.42,33.35-19.11,55.61-31.38,70.1-15.78,18.68-30.87,24.45-30.87,24.45-32.05-67.92,2.25-114.23,7.56-120.77.43-.53.67-.8.67-.8,39.79-39.79,46.92-61,47.81-69.69C393.83,378.44,409,418.34,407.88,445.7Z" transform="translate(-167.59 -196.6)"/><path class="cls-1" d="M321.38,541.56" transform="translate(-167.59 -196.6)"/><path class="cls-3" d="M368.13,327.28s-5.64,35.76-46.75,69.23c0,0-1.25,1.29-3.22,3.77-10.78,13.62-43.25,63.21-11.47,134.23,0,0-99.79,27.24-138.57-101.19v0c2.09-19.66,10.23-43.73,21.34-68.91,34.66-78.5,98.32-167.79,98.32-167.79S333.12,260.22,368.13,327.28Z" transform="translate(-167.59 -196.6)"/><path class="cls-1" d="M205.11,331.74" transform="translate(-167.59 -196.6)"/><path class="cls-4" d="M298.41,438.7" transform="translate(-167.59 -196.6)"/><path class="cls-5" d="M295.14,452.19" transform="translate(-167.59 -196.6)"/><path class="cls-6" d="M185,474.24" transform="translate(-167.59 -196.6)"/><path class="cls-7" d="M350.51,484.22a124.9,124.9,0,0,1-1.79,21.15,123.32,123.32,0,0,1-5.79,21.84A124.58,124.58,0,0,1,325,559.93,120.18,120.18,0,0,1,167.89,453.14q-.24-3.69-.24-7.44a83.93,83.93,0,0,1,.46-12.4c2.09-19.66,10.23-43.73,21.34-68.91a125.21,125.21,0,0,1,128.71,35.89q3.82,4.23,7.25,8.77A124.53,124.53,0,0,1,350.51,484.22Z" transform="translate(-167.59 -196.6)"/></svg>